<svg width="48" height="48" viewBox="0 0 48 48" fill="none" xmlns="http://www.w3.org/2000/svg">
<rect width="48" height="48" fill="white"/>
<path d="M35.219 29.401C34.6173 29.4802 33.5124 29.6273 32.7576 29.7292C32.0027 29.831 30.8978 29.9554 30.2961 30.0233C29.6944 30.0799 28.5676 30.2044 27.7799 30.3062C26.5437 30.4533 25.7123 30.5551 22.7476 30.8719C22.4522 30.9059 21.3691 31.0303 20.3408 31.1435C19.3234 31.2679 17.9121 31.4263 17.2229 31.4942C11.6448 31.7771 11.8748 31.8624 15.0568 32.1278C15.7852 32.1278 19.4109 31.9242 19.9579 31.7771C20.0454 31.7544 20.8659 31.6526 21.763 31.5508C23.2289 31.3924 24.6292 31.2113 28.491 30.6569C30.1757 30.408 34.6392 29.7065 35.7113 29.5255C36.2255 29.435 36.7616 29.3331 36.9147 29.3105C37.5602 29.1974 36.2146 29.2766 35.219 29.401Z" fill="black"/>
<path d="M30.1706 33.2882C29.4448 33.4124 25.9075 33.898 24.599 34.0674C24.0367 34.1352 23.2802 34.2368 22.9121 34.2933C22.5441 34.3497 21.6036 34.4739 20.8164 34.5756C17.6063 34.9595 16.5124 35.1176 16.3693 35.208C16.1137 35.3661 18.7615 35.3209 20.0803 35.1402C20.7653 35.0499 21.7672 34.9144 22.2988 34.8466C23.9345 34.6433 25.7849 34.3384 28.3304 33.8415C30.1911 33.4802 30.6818 33.3785 31.0907 33.2882L31.5507 33.1865H31.1418C30.9169 33.1865 30.4773 33.2317 30.1706 33.2882Z" fill="black"/>
<ellipse cx="20.1001" cy="13" rx="15.9" ry="6.8" fill="#EC6A19"/>
<path d="M36.0501 12.3696C36.0501 13.1825 35.6852 14.0061 35.0052 14.7863C34.3251 15.5665 33.332 16.3006 32.082 16.9328C29.582 18.1971 26.0612 19.05 21.9849 19.05C17.907 19.05 14.2175 18.3791 11.5493 17.2963C10.215 16.7549 9.13861 16.1114 8.39656 15.3994C7.65463 14.6875 7.25007 13.9105 7.25007 13.1C7.25007 12.2895 7.65463 11.5125 8.39656 10.8006C9.13861 10.0886 10.215 9.44516 11.5493 8.9037C14.2175 7.82088 17.907 7.15001 21.9849 7.15001C26.0645 7.15001 29.587 7.63871 32.0876 8.53919C34.5933 9.44149 36.0501 10.7477 36.0501 12.3696Z" fill="white" stroke="#EC6A19" stroke-width="0.1"/>
<path d="M31.7825 16.9432L29.6287 15.8681L32.5553 16.2437L35.3163 13.9359L31.3032 11.5573C31.3032 11.5573 31.0134 10.9116 31.8503 11.1331C32.6873 11.3546 37.4613 12.842 37.4613 12.842L40.0557 10.9311C41.1484 10.6507 41.7714 10.6341 42.8996 10.8017L31.9359 17.7615L31.7825 16.9432Z" fill="#EC6A19"/>
<rect x="32" y="7.3" width="5" height="3.6" fill="white"/>
<rect width="1.67811" height="1.70788" transform="matrix(0.955278 0.295709 -0.291086 0.956697 35.3236 10.3846)" fill="white"/>
<path d="M46.7501 28.8C45.7501 38 35.7085 47.1 24.0001 47.1C12.2916 47.1 1.95007 37.2096 1.95007 29.45C2.75007 28.8 12.2916 41.9 24.0001 41.9C36.3501 42.9 47.004 26.4638 46.7501 28.8Z" fill="#2A3A84"/>
<path d="M38.9445 25.8548C36.6957 25.9383 33.6125 26.0577 32.0992 26.1293L29.3695 26.2606L28.3229 27.0244C27.7572 27.4422 27.149 27.8718 26.9793 27.9792C26.4702 28.2776 26.753 28.3254 28.1391 28.1821C28.8462 28.0986 29.4685 28.0628 29.4968 28.0986C29.5958 28.1702 29.1857 28.2418 27.7006 28.4089C26.4843 28.5402 25.8903 28.6118 23.4576 28.934C22.7222 29.0295 21.6332 29.1727 21.0533 29.2324C20.4734 29.304 18.9742 29.495 17.7296 29.6501C16.485 29.8172 11.7529 29.8411 9.84352 30.0798C7.90408 30.0798 6.58527 28.5022 6.50769 28.4089C5.77069 28.0014 3.68503 24.604 3.68503 24.2701C3.29714 24.2701 1 23.9585 1 23.9585C1 23.9585 2.5813 26.3719 4.44316 28.4089C4.44316 28.4089 6.50769 30.0383 8.05924 31.0401C11.4123 30.7111 14.8838 30.6158 16.6689 30.3901C17.4043 30.2946 18.5499 30.1514 19.2147 30.0798C19.8794 30.0082 20.9967 29.865 21.6897 29.7814C22.3969 29.6859 23.8819 29.495 25.0134 29.3637C28.2381 28.9698 32.6649 28.385 35.6916 27.9315C37.2473 27.7047 42.1409 26.929 42.9753 26.7857C43.2299 26.738 43.0602 26.929 42.2399 27.5973C40.5569 28.9579 39.5385 30.0321 38.4919 31.5001C37.3888 33.0755 36.7382 33.5051 35.4228 33.5529L34.9844 33.5767L35.4794 33.6483C35.8896 33.72 35.7906 33.7438 34.8571 33.8154C34.249 33.8632 33.4852 33.899 33.1599 33.899C32.8346 33.899 30.5844 33.9592 30.5317 34.0899C30.4358 34.3278 32.1399 34.3018 32.8329 34.2541C33.3562 34.2064 34.0792 34.0661 34.1217 34.1257C34.1641 34.1735 34.1217 35.3844 34.1217 35.3844C32.5236 37.9153 26.1851 38.4313 25.3541 38.4313C22.7013 39.2667 15.3823 36.3673 15.3823 36.3673C15.0429 36.4031 10.0381 32.6766 9.71845 33.4629C9.39884 34.2492 22.4137 40.2251 22.4137 40.2251L30.5037 39.3837C32.9328 39.1625 38.0105 35.3844 38.0105 34.9678C38.0671 34.9439 38.3301 34.6964 38.3621 34.6238C38.3621 34.6238 38.8095 34.205 39.257 33.5529C39.4974 33.2664 40.4579 31.6671 40.5993 31.5001C41.2782 30.6885 42.8056 29.2324 44.8564 27.5376L46.2349 25.5789C46.8335 24.7771 46.988 24.1933 47.0877 23.0236C47.0877 23.0236 44.4452 24.7438 43.9921 25.2361C42.8549 25.4854 41.2075 25.7713 38.9445 25.8548ZM30.501 28.015C30.3596 28.0389 30.105 28.0389 29.9353 28.015C29.7514 27.9912 29.8645 27.9673 30.1757 27.9673C30.4869 27.9554 30.6283 27.9792 30.501 28.015Z" fill="black"/>
<path d="M22.3224 40.5678C16.2573 39.5707 12.9036 37.5621 9.71851 33.4317L21.8801 38.8851L30.7565 39.3525C27.588 40.3644 25.7642 40.7272 22.3224 40.5678Z" fill="black" stroke="black" stroke-width="0.1"/>
<path d="M24.7919 20.8764L21.9294 21.9492L21.9499 22.6946C21.9601 23.5641 21.8886 23.5416 23.146 23.1576C24.3626 22.7849 26.0801 22.2767 26.9695 22.017L27.8078 21.7799V20.9329V20.0859L28.4416 20.165C28.7892 20.1988 29.1164 20.2779 29.1675 20.3344C29.2084 20.3795 29.239 20.7522 29.2186 21.1474L29.1879 21.8702L28.503 21.825L27.8078 21.7911V22.1186C27.8078 22.4461 27.7771 22.4687 27.1228 22.6381C26.7343 22.7285 25.4258 23.0898 24.2092 23.4399C22.9824 23.79 21.9703 24.0723 21.9601 24.0723C21.9397 24.0723 21.9397 24.4224 21.9601 24.8628C21.9806 25.292 22.0112 25.6533 22.0317 25.6533C22.0521 25.6533 22.6348 25.5178 23.33 25.3597C24.0252 25.2016 25.3031 24.908 26.1721 24.716L27.7567 24.3434L27.7873 23.4173L27.818 22.48L28.503 22.5139L29.1879 22.5478V23.3947V24.2417L28.503 24.2756C27.8385 24.3095 27.8078 24.3208 27.8078 24.5805V24.8628H29.8831C31.0179 24.8628 32.5309 24.829 33.2567 24.7838L34.5551 24.716L34.5346 22.5591C34.5142 21.0571 34.4733 20.4134 34.3915 20.4247C34.3302 20.436 33.8701 20.4021 33.3692 20.3456C32.8683 20.2892 31.5904 20.165 30.5169 20.0633C29.4537 19.973 28.3701 19.8713 28.1145 19.8488C27.7362 19.8149 27.1228 20.0069 24.7919 20.8764ZM30.3738 20.3456H30.8747V21.1136C30.8747 21.5427 30.8543 21.9154 30.8338 21.938C30.8134 21.9605 30.4863 21.9605 30.1182 21.9492L29.4435 21.9041V21.1474C29.4435 20.3456 29.4946 20.1875 29.7297 20.2892C29.8013 20.3231 30.0978 20.3456 30.3738 20.3456ZM32.3878 20.5263C32.4696 20.5489 32.5105 20.8199 32.5105 21.3733V22.1864L31.9788 22.1073C31.6824 22.0735 31.3552 22.0396 31.2632 22.0396C31.0997 22.0396 31.0792 21.9267 31.0792 21.2039V20.3569L31.6721 20.4247C31.9891 20.4473 32.3162 20.4925 32.3878 20.5263ZM34.1462 21.4298V22.2993L33.5225 22.2203C33.1852 22.1864 32.858 22.1299 32.8069 22.0848C32.7558 22.0509 32.7149 21.7008 32.7149 21.2943V20.5715H33.4305H34.1462V21.4298ZM30.8543 23.4738L30.885 24.2982H30.1591H29.4435V23.4512V22.5929L30.1387 22.6268L30.8236 22.6607L30.8543 23.4738ZM32.5105 23.5077V24.2982H31.7948H31.0792V23.5077V22.7172H31.7948H32.5105V23.5077ZM34.1257 23.598L34.1564 24.3095L33.4612 24.2756L32.766 24.2417L32.7558 23.6206C32.7456 23.2818 32.766 22.9543 32.7865 22.9091C32.8171 22.864 33.1136 22.8301 33.4612 22.8527L34.095 22.8866L34.1257 23.598Z" fill="black"/>
<path d="M14.5687 24.6144L12.8308 25.2694L12.8001 25.755C12.7694 26.218 12.7797 26.2293 13.0046 26.1502C13.1375 26.1051 13.3828 26.0373 13.5464 25.9809C13.7202 25.9357 14.3949 25.7437 15.0594 25.5517C15.7239 25.3597 16.276 25.2016 16.3067 25.2016C16.3271 25.2016 16.3578 24.9871 16.3782 24.716C16.3987 24.3321 16.4498 24.2417 16.6134 24.2417C16.7667 24.2417 16.828 24.3321 16.8485 24.6144C16.8792 24.8967 16.92 24.9758 17.0529 24.9306C17.145 24.8967 17.3494 24.8403 17.5028 24.8064C17.6766 24.7499 17.789 24.637 17.8095 24.4902C17.8504 24.1514 18.1979 24.0836 18.1979 24.4111C18.1979 24.6144 18.2388 24.637 18.4331 24.5692C18.9749 24.3885 19.118 24.2982 19.118 24.1288C19.118 23.982 18.9033 23.9594 17.7175 23.9707H16.3067L14.5687 24.6144Z" fill="black"/>
<path d="M19.1488 24.8628L16.869 25.4839V26.1728V26.8617L17.3086 26.7713C17.5437 26.7262 18.1265 26.5794 18.607 26.4664C19.0875 26.3422 19.9053 26.1502 20.4267 26.0373C20.9583 25.9357 21.4081 25.7776 21.4286 25.7098C21.4592 25.6307 21.4695 25.2694 21.449 24.908L21.4183 24.2304L19.1488 24.8628Z" fill="black"/>
<path d="M26.3765 25.2016C25.8449 25.3145 24.7408 25.5517 23.923 25.7098C21.7556 26.1615 21.9601 26.026 21.9601 26.9859C21.9601 27.4376 21.9806 27.8442 22.0112 27.8668C22.0623 27.9232 24.2603 27.6296 24.9248 27.4828C25.1395 27.4263 25.6609 27.0085 26.4174 26.2745C27.0615 25.6533 27.5931 25.1113 27.5931 25.0548C27.6033 24.9532 27.542 24.9645 26.3765 25.2016Z" fill="black"/>
<path d="M11.2462 25.8453C10.7146 26.0486 10.2648 26.218 10.2545 26.218C10.2341 26.218 10.2239 26.3648 10.2239 26.5568C10.2239 26.7601 10.275 26.8956 10.3568 26.8956C10.5817 26.8956 12.1152 26.4326 12.197 26.3422C12.2481 26.2858 12.2685 26.0712 12.2481 25.8566L12.2174 25.4614L11.2462 25.8453Z" fill="black"/>
<path d="M14.9265 26.0486C14.2211 26.2519 13.4544 26.4664 13.2193 26.5455L12.7797 26.681V27.2344C12.7797 27.5506 12.8001 27.799 12.8206 27.799C12.9023 27.799 15.2537 27.2569 15.8262 27.1101L16.3578 26.9746V26.3083C16.3578 25.947 16.3271 25.6533 16.2862 25.6646C16.2351 25.6759 15.6319 25.8453 14.9265 26.0486Z" fill="black"/>
<path d="M21.1525 26.2631C21.1321 26.2857 20.3755 26.4664 19.4759 26.6697C18.5763 26.8617 17.6255 27.0762 17.3597 27.1327L16.869 27.2569V27.9797C16.869 28.8266 16.7974 28.7928 18.2491 28.5443C18.7603 28.454 19.6292 28.3298 20.1915 28.2507C20.7538 28.1717 21.2752 28.0926 21.3467 28.07C21.5308 28.0136 21.5205 26.218 21.3365 26.218C21.2547 26.218 21.1729 26.2406 21.1525 26.2631Z" fill="black"/>
<path d="M11.4507 27.0085C10.2443 27.3925 10.2239 27.4038 10.2239 27.9119C10.2239 28.1717 10.275 28.3637 10.3466 28.3637C10.5919 28.3637 12.1254 27.991 12.2174 27.9119C12.3299 27.8103 12.2992 26.7714 12.1765 26.7939C12.1458 26.8052 11.8187 26.8956 11.4507 27.0085Z" fill="black"/>
<path d="M15.8466 27.4715C15.591 27.528 14.8039 27.7087 14.0882 27.8781L12.7797 28.1717V28.7928V29.4139L13.1681 29.3349C13.3726 29.301 14.1189 29.1881 14.8243 29.0864C15.5297 28.9848 16.1635 28.8831 16.2351 28.8606C16.3169 28.838 16.3578 28.5782 16.3578 28.0813C16.3578 27.6748 16.3476 27.3473 16.3373 27.3586C16.3169 27.3699 16.1022 27.4151 15.8466 27.4715Z" fill="black"/>
<path d="M11.7063 28.3749C11.4814 28.4201 11.0725 28.533 10.7862 28.6121L10.2751 28.7589V29.2671C10.2751 29.843 10.2137 29.8317 11.5836 29.5946L12.2686 29.4704V28.8605C12.2686 28.5217 12.2379 28.2507 12.197 28.262C12.1459 28.2733 11.9312 28.3185 11.7063 28.3749Z" fill="black"/>
</svg>
