<svg width="61" height="61" viewBox="0 0 61 61" fill="none" xmlns="http://www.w3.org/2000/svg">
<rect x="0.5" y="0.780029" width="60" height="60" rx="30" fill="#2553B8"/>
<g clip-path="url(#clip0_1_377)">
<path d="M32.52 29.943C32.52 29.943 32.6595 29.8035 32.9385 29.5245C33.2176 29.2454 33.3571 28.7116 33.3571 27.9229C33.3571 27.1342 33.0781 26.4608 32.52 25.9028C31.962 25.3448 31.2886 25.0658 30.4999 25.0658C29.7112 25.0658 29.0379 25.3448 28.4798 25.9028C27.9218 26.4608 27.6428 27.1342 27.6428 27.9229C27.6428 28.7116 27.9218 29.385 28.4798 29.943C29.0379 30.501 29.7112 30.78 30.4999 30.78C31.2886 30.78 31.962 30.501 32.52 29.943ZM36.2142 27.9229C36.2142 28.7339 36.0914 29.3998 35.8459 29.9207L31.7834 38.5591C31.6644 38.8046 31.4877 38.998 31.2533 39.1394C31.0189 39.2808 30.7678 39.3515 30.4999 39.3515C30.2321 39.3515 29.981 39.2808 29.7466 39.1394C29.5122 38.998 29.3392 38.8046 29.2276 38.5591L25.1539 29.9207C24.9084 29.3998 24.7856 28.7339 24.7856 27.9229C24.7856 26.3455 25.3437 24.9988 26.4598 23.8827C27.5758 22.7667 28.9225 22.2086 30.4999 22.2086C32.0773 22.2086 33.424 22.7667 34.5401 23.8827C35.6562 24.9988 36.2142 26.3455 36.2142 27.9229Z" fill="white"/>
</g>
<defs>
<clipPath id="clip0_1_377">
<rect width="11.44" height="20" fill="white" transform="matrix(1 0 0 -1 24.78 40.78)"/>
</clipPath>
</defs>
</svg>
