<svg width="1080" height="1080" viewBox="0 0 1080 1080" fill="none" xmlns="http://www.w3.org/2000/svg">
<path d="M415.378 571H361.974L277.309 486.19H250.824V448.272H277.309L361.974 363.462H415.378L308.714 467.231L415.378 571ZM235.772 571H198.143V363.462H235.772V571ZM882.41 509.925C882.41 517.355 881.445 524.06 879.516 530.042C877.683 535.928 875.222 541.138 872.135 545.673C869.047 550.208 865.429 554.067 861.28 557.251C857.131 560.435 852.838 563.04 848.4 565.066C843.961 567.092 839.427 568.588 834.795 569.553C830.261 570.518 825.967 571 821.915 571H676.754V533.371H821.915C829.151 533.371 834.747 531.248 838.703 527.003C842.755 522.758 844.781 517.065 844.781 509.925C844.781 506.452 844.251 503.268 843.189 500.373C842.128 497.479 840.584 494.97 838.558 492.848C836.628 490.725 834.216 489.085 831.322 487.927C828.524 486.769 825.388 486.19 821.915 486.19H735.368C729.29 486.19 722.729 485.129 715.685 483.006C708.642 480.787 702.081 477.265 696.003 472.441C690.02 467.617 685.003 461.297 680.951 453.482C676.995 445.667 675.017 436.115 675.017 424.826C675.017 413.538 676.995 404.034 680.951 396.315C685.003 388.5 690.02 382.18 696.003 377.356C702.081 372.435 708.642 368.913 715.685 366.791C722.729 364.572 729.29 363.462 735.368 363.462H863.451V401.091H735.368C728.228 401.091 722.632 403.262 718.58 407.604C714.624 411.946 712.646 417.686 712.646 424.826C712.646 432.063 714.624 437.803 718.58 442.049C722.632 446.197 728.228 448.272 735.368 448.272H821.915H822.204C826.256 448.368 830.55 448.947 835.085 450.009C839.62 450.973 844.106 452.517 848.544 454.64C853.079 456.763 857.373 459.464 861.425 462.745C865.477 465.929 869.047 469.788 872.135 474.323C875.319 478.857 877.827 484.068 879.661 489.953C881.494 495.839 882.41 502.496 882.41 509.925Z" fill="black"/>
<path d="M646.072 484.164C646.072 496.804 643.853 508.43 639.414 519.043C635.073 529.656 629.042 538.822 621.324 546.541C613.605 554.163 604.439 560.146 593.826 564.487C583.212 568.829 571.682 571 559.236 571H457.638C454.936 571 452.428 570.518 450.112 569.553C447.796 568.588 445.77 567.285 444.034 565.645C442.393 563.908 441.091 561.882 440.126 559.567C439.161 557.251 438.679 554.742 438.679 552.041V382.421C438.679 379.816 439.161 377.356 440.126 375.04C441.091 372.725 442.393 370.698 444.034 368.962C445.77 367.225 447.796 365.874 450.112 364.909C452.428 363.945 454.936 363.462 457.638 363.462H559.236C571.682 363.462 583.212 365.633 593.826 369.975C604.439 374.317 613.605 380.347 621.324 388.066C629.042 395.688 635.073 404.854 639.414 415.564C643.853 426.177 646.072 437.755 646.072 450.298V484.164ZM608.443 450.298C608.443 442.965 607.237 436.26 604.825 430.181C602.509 424.103 599.18 418.941 594.839 414.695C590.497 410.354 585.287 407.025 579.208 404.709C573.226 402.297 566.569 401.091 559.236 401.091H476.308V533.371H559.236C566.569 533.371 573.226 532.213 579.208 529.898C585.287 527.486 590.497 524.157 594.839 519.912C599.18 515.57 602.509 510.408 604.825 504.426C607.237 498.347 608.443 491.593 608.443 484.164V450.298Z" fill="#EC6A19"/>
<path d="M158.307 767H145.523V696.49H158.307V767ZM230.734 767H217.95V737.498C217.95 735.826 217.655 734.335 217.065 733.024C216.508 731.68 215.738 730.532 214.754 729.582C213.771 728.631 212.607 727.91 211.263 727.418C209.952 726.894 208.526 726.631 206.985 726.631H184.613V767H171.829V720.19C171.829 719.305 171.993 718.486 172.321 717.732C172.648 716.945 173.107 716.273 173.697 715.716C174.287 715.126 174.976 714.667 175.762 714.339C176.549 714.011 177.385 713.847 178.27 713.847H207.084C208.69 713.847 210.378 714.028 212.148 714.388C213.951 714.749 215.721 715.339 217.459 716.158C219.229 716.945 220.9 717.961 222.474 719.207C224.08 720.42 225.49 721.911 226.703 723.681C227.948 725.419 228.932 727.435 229.653 729.729C230.374 732.024 230.734 734.613 230.734 737.498V767ZM288.706 726.631H266.383V767H253.451V726.631H236.832V713.847H253.451V696.49H266.383V713.847H288.706V726.631ZM354.102 731.45C354.102 733.22 353.79 735.138 353.168 737.203C352.545 739.235 351.529 741.137 350.119 742.907C348.742 744.644 346.923 746.103 344.661 747.283C342.432 748.463 339.711 749.053 336.499 749.053H313.438V736.908H336.499C338.236 736.908 339.58 736.384 340.531 735.335C341.482 734.253 341.957 732.925 341.957 731.352C341.957 729.68 341.416 728.369 340.334 727.418C339.285 726.468 338.007 725.992 336.499 725.992H313.438C311.701 725.992 310.357 726.533 309.406 727.615C308.456 728.664 307.98 729.975 307.98 731.548V749.397C307.98 751.102 308.505 752.429 309.554 753.38C310.636 754.331 311.963 754.806 313.537 754.806H336.499V767H313.438C311.668 767 309.751 766.689 307.685 766.066C305.653 765.443 303.752 764.443 301.982 763.066C300.244 761.657 298.786 759.838 297.606 757.609C296.425 755.347 295.835 752.61 295.835 749.397V731.45C295.835 729.68 296.147 727.779 296.77 725.746C297.392 723.681 298.392 721.78 299.769 720.043C301.179 718.273 302.998 716.798 305.227 715.617C307.489 714.437 310.226 713.847 313.438 713.847H336.499C338.269 713.847 340.17 714.159 342.203 714.782C344.268 715.404 346.169 716.421 347.906 717.83C349.677 719.207 351.152 721.026 352.332 723.288C353.512 725.517 354.102 728.238 354.102 731.45ZM409.221 726.631H380.457C378.72 726.631 377.408 727.074 376.523 727.959C375.638 728.811 375.196 730.073 375.196 731.745V767H362.412V731.745C362.412 729.549 362.69 727.582 363.247 725.845C363.805 724.107 364.542 722.583 365.46 721.272C366.411 719.928 367.492 718.797 368.705 717.879C369.918 716.929 371.18 716.158 372.491 715.568C373.835 714.978 375.179 714.552 376.523 714.29C377.9 713.995 379.178 713.847 380.359 713.847H409.221V726.631ZM476.584 767H463.8V737.498C463.8 735.826 463.505 734.335 462.915 733.024C462.358 731.68 461.587 730.532 460.604 729.582C459.62 728.631 458.457 727.91 457.113 727.418C455.802 726.894 454.376 726.631 452.835 726.631H430.463V767H417.679V720.19C417.679 719.305 417.842 718.486 418.17 717.732C418.498 716.945 418.957 716.273 419.547 715.716C420.137 715.126 420.825 714.667 421.612 714.339C422.399 714.011 423.235 713.847 424.12 713.847H452.933C454.54 713.847 456.228 714.028 457.998 714.388C459.801 714.749 461.571 715.339 463.308 716.158C465.078 716.945 466.75 717.961 468.324 719.207C469.93 720.42 471.339 721.911 472.552 723.681C473.798 725.419 474.781 727.435 475.502 729.729C476.223 732.024 476.584 734.613 476.584 737.498V767ZM542.668 749.397C542.668 751.167 542.357 753.085 541.734 755.15C541.111 757.182 540.095 759.084 538.686 760.854C537.309 762.591 535.49 764.05 533.228 765.23C530.999 766.41 528.278 767 525.066 767H502.005C500.235 767 498.317 766.689 496.252 766.066C494.22 765.443 492.318 764.443 490.548 763.066C488.811 761.657 487.352 759.838 486.172 757.609C484.992 755.347 484.402 752.61 484.402 749.397C484.402 747.627 484.713 745.709 485.336 743.644C485.959 741.579 486.959 739.678 488.336 737.941C489.745 736.17 491.565 734.695 493.794 733.515C496.055 732.335 498.792 731.745 502.005 731.745H525.066V743.939H502.005C500.268 743.939 498.924 744.48 497.973 745.562C497.022 746.611 496.547 747.922 496.547 749.496C496.547 751.167 497.088 752.478 498.17 753.429C499.284 754.347 500.595 754.806 502.103 754.806H525.066C526.803 754.806 528.147 754.281 529.098 753.232C530.048 752.183 530.523 750.872 530.523 749.299V731.45C530.523 729.778 529.999 728.451 528.95 727.467C527.934 726.484 526.639 725.992 525.066 725.992H496.99V713.847H525.066C526.836 713.847 528.737 714.159 530.769 714.782C532.834 715.404 534.736 716.421 536.473 717.83C538.243 719.207 539.718 721.026 540.898 723.288C542.078 725.517 542.668 728.238 542.668 731.45V749.397ZM601.722 726.631H579.398V767H566.467V726.631H549.847V713.847H566.467V696.49H579.398V713.847H601.722V726.631ZM623.11 702.932H610.326V691.377H623.11V702.932ZM623.11 767H610.326V713.847H623.11V767ZM693.227 749.053C693.227 751.249 692.948 753.232 692.391 755.003C691.834 756.74 691.096 758.281 690.178 759.625C689.26 760.936 688.195 762.067 686.982 763.017C685.769 763.935 684.491 764.689 683.147 765.279C681.836 765.869 680.492 766.312 679.115 766.607C677.771 766.869 676.493 767 675.28 767H652.219C650.449 767 648.515 766.689 646.417 766.066C644.319 765.443 642.369 764.427 640.566 763.017C638.796 761.575 637.304 759.723 636.091 757.461C634.911 755.166 634.321 752.364 634.321 749.053V731.745C634.321 728.467 634.911 725.697 636.091 723.435C637.304 721.141 638.796 719.289 640.566 717.879C642.369 716.437 644.319 715.404 646.417 714.782C648.515 714.159 650.449 713.847 652.219 713.847H675.28C678.558 713.847 681.344 714.437 683.639 715.617C685.933 716.798 687.785 718.289 689.195 720.092C690.604 721.862 691.621 723.796 692.243 725.894C692.899 727.992 693.227 729.942 693.227 731.745V749.053ZM680.443 731.844C680.443 730.073 680 728.762 679.115 727.91C678.23 727.058 676.951 726.631 675.28 726.631H652.317C650.613 726.631 649.318 727.074 648.433 727.959C647.548 728.811 647.105 730.073 647.105 731.745V749.053C647.105 750.725 647.548 752.003 648.433 752.888C649.318 753.773 650.613 754.216 652.317 754.216H675.28C677.017 754.216 678.312 753.773 679.164 752.888C680.016 752.003 680.443 750.725 680.443 749.053V731.844ZM763.048 767H750.264V737.498C750.264 735.826 749.969 734.335 749.379 733.024C748.822 731.68 748.051 730.532 747.068 729.582C746.084 728.631 744.921 727.91 743.577 727.418C742.266 726.894 740.84 726.631 739.299 726.631H716.927V767H704.142V720.19C704.142 719.305 704.306 718.486 704.634 717.732C704.962 716.945 705.421 716.273 706.011 715.716C706.601 715.126 707.289 714.667 708.076 714.339C708.863 714.011 709.699 713.847 710.584 713.847H739.397C741.004 713.847 742.692 714.028 744.462 714.388C746.265 714.749 748.035 715.339 749.772 716.158C751.542 716.945 753.214 717.961 754.787 719.207C756.394 720.42 757.803 721.911 759.016 723.681C760.262 725.419 761.245 727.435 761.966 729.729C762.687 732.024 763.048 734.613 763.048 737.498V767ZM829.132 749.397C829.132 751.167 828.821 753.085 828.198 755.15C827.575 757.182 826.559 759.084 825.15 760.854C823.773 762.591 821.954 764.05 819.692 765.23C817.463 766.41 814.742 767 811.53 767H788.469C786.699 767 784.781 766.689 782.716 766.066C780.684 765.443 778.782 764.443 777.012 763.066C775.275 761.657 773.816 759.838 772.636 757.609C771.456 755.347 770.866 752.61 770.866 749.397C770.866 747.627 771.177 745.709 771.8 743.644C772.423 741.579 773.423 739.678 774.8 737.941C776.209 736.17 778.028 734.695 780.258 733.515C782.519 732.335 785.256 731.745 788.469 731.745H811.53V743.939H788.469C786.732 743.939 785.388 744.48 784.437 745.562C783.486 746.611 783.011 747.922 783.011 749.496C783.011 751.167 783.552 752.478 784.634 753.429C785.748 754.347 787.059 754.806 788.567 754.806H811.53C813.267 754.806 814.611 754.281 815.562 753.232C816.512 752.183 816.987 750.872 816.987 749.299V731.45C816.987 729.778 816.463 728.451 815.414 727.467C814.398 726.484 813.103 725.992 811.53 725.992H783.454V713.847H811.53C813.3 713.847 815.201 714.159 817.233 714.782C819.298 715.404 821.2 716.421 822.937 717.83C824.707 719.207 826.182 721.026 827.362 723.288C828.542 725.517 829.132 728.238 829.132 731.45V749.397ZM863.404 767H857.7C855.864 767 853.898 766.689 851.8 766.066C849.735 765.443 847.801 764.427 845.998 763.017C844.195 761.575 842.703 759.723 841.523 757.461C840.343 755.166 839.753 752.364 839.753 749.053V691.377H852.537V749.053C852.537 750.626 853.029 751.888 854.012 752.839C854.996 753.757 856.225 754.216 857.7 754.216H863.404V767ZM922.998 749.053C922.998 751.249 922.719 753.232 922.162 755.003C921.605 756.74 920.867 758.281 919.949 759.625C919.031 760.936 917.966 762.067 916.753 763.017C915.54 763.935 914.262 764.689 912.918 765.279C911.607 765.869 910.263 766.312 908.886 766.607C907.542 766.869 906.264 767 905.051 767H870.435V754.216H904.952C906.69 754.216 908.001 753.773 908.886 752.888C909.771 752.003 910.214 750.725 910.214 749.053C910.05 745.644 908.329 743.939 905.051 743.939H885.235C882.416 743.939 880.023 743.448 878.057 742.464C876.09 741.481 874.483 740.252 873.238 738.776C872.025 737.301 871.14 735.712 870.583 734.007C870.058 732.302 869.796 730.713 869.796 729.238C869.796 726.386 870.304 723.993 871.32 722.059C872.336 720.092 873.615 718.502 875.155 717.289C876.696 716.076 878.368 715.208 880.171 714.683C881.974 714.126 883.662 713.847 885.235 713.847H916.655V726.631H885.334C884.678 726.631 884.154 726.713 883.76 726.877C883.4 727.008 883.121 727.205 882.924 727.467C882.76 727.697 882.662 727.959 882.629 728.254C882.597 728.516 882.58 728.779 882.58 729.041C882.613 729.565 882.711 729.975 882.875 730.27C883.039 730.565 883.236 730.778 883.465 730.909C883.727 731.04 884.006 731.122 884.301 731.155C884.629 731.155 884.94 731.155 885.235 731.155H905.051C908.329 731.155 911.115 731.745 913.41 732.925C915.704 734.105 917.556 735.597 918.966 737.4C920.375 739.17 921.392 741.104 922.014 743.202C922.67 745.3 922.998 747.25 922.998 749.053Z" fill="#202C64"/>
</svg>
