<svg width="61" height="61" viewBox="0 0 61 61" fill="none" xmlns="http://www.w3.org/2000/svg">
<rect x="0.5" y="0.780029" width="60" height="60" rx="30" fill="#182933"/>
<g clip-path="url(#clip0_1_391)">
<path d="M40.1875 20.9028C40.4331 21.0814 40.5335 21.3195 40.4889 21.6171L37.6317 38.7599C37.5945 38.9757 37.4755 39.1431 37.2746 39.2622C37.1704 39.3217 37.0551 39.3515 36.9286 39.3515C36.8467 39.3515 36.7575 39.3329 36.6607 39.2957L31.6049 37.2309L28.904 40.5233C28.7701 40.6945 28.5878 40.78 28.3572 40.78C28.2604 40.78 28.1786 40.7651 28.1116 40.7354C27.9703 40.6833 27.8568 40.5959 27.7712 40.4731C27.6857 40.3503 27.6429 40.2146 27.6429 40.0657V36.1707L37.2857 24.3515L25.3549 34.6751L20.9464 32.8671C20.6712 32.7629 20.5223 32.5583 20.5 32.2532C20.4851 31.9556 20.6042 31.7361 20.8572 31.5948L39.4286 20.8805C39.5402 20.8135 39.6592 20.78 39.7857 20.78C39.9345 20.78 40.0685 20.821 40.1875 20.9028Z" fill="white"/>
</g>
<defs>
<clipPath id="clip0_1_391">
<rect width="20" height="20" fill="white" transform="matrix(1 0 0 -1 20.4988 40.78)"/>
</clipPath>
</defs>
</svg>
