<svg width="61" height="61" viewBox="0 0 61 61" fill="none" xmlns="http://www.w3.org/2000/svg">
<rect x="0.5" y="0.780029" width="60" height="60" rx="30" fill="#182933"/>
<g clip-path="url(#clip0_1_398)">
<path d="M26.1977 23.3582C26.1977 23.3582 26.526 23.1666 27.1826 22.7834C27.8392 22.4002 28.9451 22.2086 30.5001 22.2086C32.0552 22.2086 33.4894 22.5918 34.8026 23.3582C36.1158 24.1245 37.1556 25.1643 37.922 26.4776C38.6884 27.7908 39.0716 29.225 39.0716 30.78C39.0716 32.3351 38.6884 33.7693 37.922 35.0825C37.1556 36.3957 36.1158 37.4355 34.8026 38.2019C33.4894 38.9683 32.0552 39.3515 30.5001 39.3515C28.9451 39.3515 27.5109 38.9683 26.1977 38.2019C24.8844 37.4355 23.8446 36.3957 23.0783 35.0825C22.3119 33.7693 21.9287 32.3351 21.9287 30.78C21.9287 29.225 22.3119 27.7908 23.0783 26.4776C23.8446 25.1643 24.8844 24.1245 26.1977 23.3582ZM33.5582 28.0233C33.5433 28.0308 33.508 28.0661 33.4521 28.1294C33.3963 28.1926 33.3461 28.228 33.3015 28.2354C33.3164 28.2354 33.3331 28.2168 33.3517 28.1796C33.3703 28.1424 33.3889 28.1015 33.4075 28.0568C33.4261 28.0122 33.4391 27.9861 33.4466 27.9787C33.4912 27.9266 33.5731 27.8708 33.6921 27.8113C33.7963 27.7667 33.9897 27.722 34.2725 27.6774C34.5254 27.6178 34.7152 27.6588 34.8417 27.8001C34.8268 27.7853 34.8621 27.7369 34.9477 27.655C35.0332 27.5732 35.0872 27.5286 35.1095 27.5211C35.1318 27.5062 35.1876 27.4895 35.2769 27.4709C35.3662 27.4523 35.422 27.4244 35.4443 27.3872L35.4667 27.1417C35.3774 27.1491 35.3123 27.123 35.2713 27.0635C35.2304 27.004 35.2062 26.9259 35.1988 26.8292C35.1988 26.844 35.1765 26.8738 35.1318 26.9184C35.1318 26.8664 35.1151 26.8366 35.0816 26.8292C35.0481 26.8217 35.0053 26.8254 34.9533 26.8403C34.9012 26.8552 34.8677 26.8589 34.8528 26.8515C34.7784 26.8292 34.7226 26.8012 34.6854 26.7678C34.6482 26.7343 34.6184 26.6729 34.5961 26.5836C34.5738 26.4943 34.5589 26.4385 34.5515 26.4162C34.5366 26.379 34.5013 26.3381 34.4455 26.2934C34.3896 26.2488 34.3543 26.2116 34.3394 26.1818C34.332 26.1669 34.3227 26.1465 34.3115 26.1204C34.3004 26.0944 34.2892 26.0702 34.278 26.0479C34.2669 26.0256 34.252 26.0051 34.2334 25.9865C34.2148 25.9679 34.1943 25.9586 34.172 25.9586C34.1497 25.9586 34.1237 25.9772 34.0939 26.0144C34.0641 26.0516 34.0362 26.0888 34.0102 26.126C33.9841 26.1632 33.9674 26.1818 33.96 26.1818C33.9376 26.1669 33.9153 26.1614 33.893 26.1651C33.8707 26.1688 33.8539 26.1725 33.8428 26.1762C33.8316 26.18 33.8149 26.1911 33.7925 26.2097C33.7702 26.2283 33.7516 26.2414 33.7367 26.2488C33.7144 26.2637 33.6828 26.2748 33.6419 26.2823C33.601 26.2897 33.5693 26.2972 33.547 26.3046C33.6586 26.2674 33.6549 26.2265 33.5359 26.1818C33.4614 26.1521 33.4019 26.1409 33.3573 26.1483C33.4242 26.1186 33.4521 26.0739 33.441 26.0144C33.4298 25.9549 33.3982 25.9028 33.3461 25.8582H33.4019C33.3945 25.8284 33.3629 25.7968 33.3071 25.7633C33.2513 25.7298 33.1862 25.6982 33.1117 25.6684C33.0373 25.6387 32.989 25.6164 32.9667 25.6015C32.9071 25.5643 32.7806 25.5289 32.5872 25.4954C32.3937 25.462 32.271 25.4601 32.2189 25.4899C32.1817 25.5345 32.1649 25.5736 32.1687 25.6071C32.1724 25.6405 32.1873 25.6926 32.2133 25.7633C32.2394 25.834 32.2524 25.8805 32.2524 25.9028C32.2598 25.9475 32.2394 25.9958 32.191 26.0479C32.1426 26.1 32.1184 26.1446 32.1184 26.1818C32.1184 26.2339 32.1705 26.2916 32.2747 26.3548C32.3789 26.4181 32.4161 26.498 32.3863 26.5948C32.364 26.6543 32.3045 26.7138 32.2077 26.7733C32.111 26.8329 32.0515 26.8775 32.0292 26.9073C31.992 26.9668 31.9864 27.0356 32.0124 27.1137C32.0385 27.1919 32.0775 27.2533 32.1296 27.2979C32.1445 27.3128 32.1501 27.3277 32.1463 27.3425C32.1426 27.3574 32.1296 27.3742 32.1073 27.3928C32.085 27.4114 32.0645 27.4262 32.0459 27.4374C32.0273 27.4486 32.0031 27.4616 31.9734 27.4765L31.9399 27.4988C31.858 27.536 31.7818 27.5137 31.7111 27.4318C31.6404 27.35 31.5902 27.2533 31.5604 27.1417C31.5083 26.9556 31.4488 26.844 31.3818 26.8068C31.2107 26.7473 31.1028 26.751 31.0582 26.818C31.021 26.7213 30.8684 26.6245 30.6006 26.5278C30.4146 26.4608 30.1988 26.446 29.9533 26.4832C29.9979 26.4757 29.9979 26.4199 29.9533 26.3158C29.9012 26.2042 29.8305 26.1595 29.7412 26.1818C29.7635 26.1372 29.7784 26.0721 29.7859 25.9865C29.7933 25.901 29.797 25.8507 29.797 25.8358C29.8193 25.7391 29.864 25.6536 29.9309 25.5792C29.9384 25.5717 29.9644 25.5401 30.0091 25.4843C30.0537 25.4285 30.0891 25.3783 30.1151 25.3336C30.1411 25.289 30.143 25.2667 30.1207 25.2667C30.3811 25.2964 30.5671 25.2555 30.6787 25.1439C30.7159 25.1067 30.7587 25.0434 30.8071 24.9542C30.8554 24.8649 30.8945 24.8016 30.9242 24.7644C30.9912 24.7198 31.0433 24.6993 31.0805 24.703C31.1177 24.7068 31.1716 24.7272 31.2423 24.7644C31.313 24.8016 31.367 24.8202 31.4042 24.8202C31.5083 24.8277 31.566 24.7867 31.5771 24.6975C31.5883 24.6082 31.5604 24.5338 31.4934 24.4742C31.5827 24.4817 31.5939 24.4184 31.5269 24.2845C31.4972 24.2324 31.4674 24.1989 31.4376 24.1841C31.3484 24.1543 31.2479 24.1729 31.1363 24.2399C31.0768 24.2696 31.0842 24.2994 31.1586 24.3292C31.1512 24.3217 31.1158 24.3608 31.0526 24.4463C30.9894 24.5319 30.928 24.597 30.8684 24.6417C30.8089 24.6863 30.7494 24.6677 30.6899 24.5858C30.6824 24.5784 30.662 24.5282 30.6285 24.4352C30.595 24.3422 30.5597 24.2919 30.5225 24.2845C30.4629 24.2845 30.4034 24.3403 30.3439 24.4519C30.3662 24.3924 30.3253 24.3366 30.2211 24.2845C30.117 24.2324 30.0277 24.2027 29.9533 24.1952C30.0946 24.1059 30.0649 24.0055 29.864 23.8939C29.8119 23.8641 29.7356 23.8455 29.6352 23.8381C29.5347 23.8306 29.4622 23.8455 29.4175 23.8827C29.3803 23.9348 29.3599 23.9776 29.3562 24.0111C29.3524 24.0446 29.371 24.0743 29.412 24.1004C29.4529 24.1264 29.492 24.1469 29.5292 24.1617C29.5664 24.1766 29.6091 24.1915 29.6575 24.2064C29.7059 24.2213 29.7375 24.2324 29.7524 24.2399C29.8565 24.3143 29.8863 24.3664 29.8417 24.3961C29.8268 24.4036 29.7952 24.4166 29.7468 24.4352C29.6984 24.4538 29.6556 24.4705 29.6184 24.4854C29.5812 24.5003 29.5589 24.5152 29.5515 24.53C29.5292 24.5598 29.5292 24.6119 29.5515 24.6863C29.5738 24.7607 29.5664 24.8128 29.5292 24.8425C29.492 24.8053 29.4585 24.7402 29.4287 24.6472C29.3989 24.5542 29.3729 24.4928 29.3506 24.4631C29.4027 24.53 29.3097 24.5524 29.0716 24.53L28.96 24.5189C28.9302 24.5189 28.8707 24.5263 28.7814 24.5412C28.6921 24.5561 28.6158 24.5598 28.5526 24.5524C28.4894 24.5449 28.4391 24.5152 28.4019 24.4631C28.3722 24.4036 28.3722 24.3292 28.4019 24.2399C28.4094 24.2101 28.4242 24.2027 28.4466 24.2175C28.4168 24.1952 28.3759 24.1599 28.3238 24.1115C28.2717 24.0632 28.2345 24.0315 28.2122 24.0167C27.8699 24.1283 27.5202 24.2808 27.1631 24.4742C27.2077 24.4817 27.2524 24.478 27.297 24.4631C27.3342 24.4482 27.3826 24.424 27.4421 24.3905C27.5016 24.3571 27.5388 24.3366 27.5537 24.3292C27.8067 24.225 27.9629 24.1989 28.0225 24.251L28.0783 24.1952C28.1824 24.3143 28.2568 24.4073 28.3015 24.4742C28.2494 24.4445 28.1378 24.4408 27.9667 24.4631C27.8178 24.5077 27.736 24.5524 27.7211 24.597C27.7732 24.6863 27.7918 24.7533 27.7769 24.7979C27.7472 24.7756 27.7044 24.7384 27.6486 24.6863C27.5928 24.6342 27.5388 24.5933 27.4867 24.5635C27.4347 24.5338 27.3789 24.5152 27.3193 24.5077C27.2003 24.5077 27.1184 24.5114 27.0738 24.5189C25.9875 25.1141 25.1132 25.94 24.451 26.9966C24.5031 27.0486 24.5478 27.0784 24.585 27.0858C24.6147 27.0933 24.6333 27.1268 24.6408 27.1863C24.6482 27.2458 24.6575 27.2867 24.6687 27.3091C24.6798 27.3314 24.7226 27.3202 24.797 27.2756C24.864 27.3351 24.8751 27.4058 24.8305 27.4876C24.8379 27.4802 25.0016 27.5806 25.3216 27.789C25.4629 27.9155 25.5411 27.9936 25.5559 28.0233C25.5783 28.1052 25.5411 28.1722 25.4443 28.2242C25.4369 28.2094 25.4034 28.1759 25.3439 28.1238C25.2844 28.0717 25.2509 28.0568 25.2434 28.0792C25.2211 28.1164 25.223 28.1852 25.249 28.2856C25.2751 28.3861 25.3141 28.4326 25.3662 28.4251C25.3141 28.4251 25.2788 28.4847 25.2602 28.6037C25.2416 28.7228 25.2323 28.8548 25.2323 28.9999C25.2323 29.145 25.2286 29.2324 25.2211 29.2622L25.2434 29.2733C25.2211 29.3626 25.2416 29.491 25.3048 29.6584C25.3681 29.8258 25.4481 29.8983 25.5448 29.876C25.4481 29.8983 25.5225 30.0583 25.768 30.3559C25.8126 30.4155 25.8424 30.4489 25.8573 30.4564C25.8796 30.4713 25.9242 30.4992 25.9912 30.5401C26.0582 30.581 26.114 30.6182 26.1586 30.6517C26.2033 30.6852 26.2405 30.7242 26.2702 30.7689C26.3 30.8061 26.3372 30.8898 26.3818 31.02C26.4265 31.1502 26.4786 31.2376 26.5381 31.2823C26.5232 31.3269 26.5585 31.4013 26.6441 31.5055C26.7297 31.6097 26.7687 31.6952 26.7613 31.7622C26.7539 31.7622 26.7446 31.7659 26.7334 31.7733C26.7222 31.7808 26.7129 31.7845 26.7055 31.7845C26.7278 31.8366 26.7855 31.8887 26.8785 31.9408C26.9715 31.9928 27.0292 32.0412 27.0515 32.0858C27.0589 32.1082 27.0664 32.1454 27.0738 32.1975C27.0812 32.2495 27.0924 32.2905 27.1073 32.3202C27.1222 32.35 27.1519 32.3574 27.1966 32.3425C27.2114 32.1937 27.1222 31.9631 26.9287 31.6506C26.8171 31.4646 26.7539 31.3567 26.739 31.3269C26.7167 31.2897 26.6962 31.2321 26.6776 31.1539C26.659 31.0758 26.6423 31.0219 26.6274 30.9921C26.6423 30.9921 26.6646 30.9977 26.6943 31.0088C26.7241 31.02 26.7557 31.033 26.7892 31.0479C26.8227 31.0628 26.8506 31.0777 26.8729 31.0925C26.8952 31.1074 26.9027 31.1186 26.8952 31.126C26.8729 31.1781 26.8803 31.2432 26.9176 31.3213C26.9548 31.3995 26.9994 31.4683 27.0515 31.5278C27.1036 31.5873 27.1668 31.658 27.2412 31.7399C27.3156 31.8217 27.3603 31.8701 27.3751 31.885C27.4198 31.9296 27.4719 32.0021 27.5314 32.1026C27.5909 32.203 27.5909 32.2533 27.5314 32.2533C27.5984 32.2533 27.6728 32.2923 27.7546 32.3704C27.8364 32.4486 27.8997 32.5211 27.9443 32.5881C27.9815 32.6476 28.0113 32.7443 28.0336 32.8783C28.0559 33.0122 28.0745 33.1015 28.0894 33.1461C28.1043 33.1982 28.1359 33.2484 28.1843 33.2968C28.2327 33.3451 28.2792 33.3805 28.3238 33.4028C28.3684 33.4251 28.428 33.4549 28.5024 33.4921C28.5768 33.5293 28.6251 33.5553 28.6475 33.5702C28.6847 33.5851 28.7535 33.6242 28.8539 33.6874C28.9544 33.7507 29.0344 33.7934 29.0939 33.8158C29.1683 33.8455 29.2278 33.8604 29.2725 33.8604C29.3171 33.8604 29.371 33.8511 29.4343 33.8325C29.4975 33.8139 29.5478 33.8009 29.585 33.7934C29.6966 33.7786 29.8045 33.8344 29.9086 33.9608C30.0128 34.0873 30.0909 34.1655 30.143 34.1952C30.4109 34.3366 30.6155 34.3775 30.7568 34.318C30.742 34.3254 30.7438 34.3533 30.7624 34.4017C30.781 34.4501 30.8108 34.5077 30.8517 34.5747C30.8926 34.6416 30.9261 34.6956 30.9521 34.7365C30.9782 34.7774 30.9987 34.8091 31.0135 34.8314C31.0507 34.876 31.1177 34.9318 31.2144 34.9988C31.3112 35.0658 31.3781 35.1216 31.4153 35.1662C31.46 35.1364 31.486 35.103 31.4934 35.0658C31.4711 35.1253 31.4972 35.1997 31.5716 35.289C31.646 35.3783 31.7129 35.4155 31.7725 35.4006C31.8766 35.3783 31.9287 35.2592 31.9287 35.0434C31.6981 35.155 31.5158 35.0881 31.3818 34.8425C31.3818 34.8351 31.3725 34.8146 31.3539 34.7812C31.3353 34.7477 31.3205 34.7161 31.3093 34.6863C31.2981 34.6565 31.2888 34.6249 31.2814 34.5914C31.2739 34.5579 31.2739 34.53 31.2814 34.5077C31.2888 34.4854 31.3074 34.4742 31.3372 34.4742C31.4042 34.4742 31.4414 34.4612 31.4488 34.4352C31.4562 34.4091 31.4488 34.3626 31.4265 34.2957C31.4042 34.2287 31.3893 34.1803 31.3818 34.1506C31.3744 34.0911 31.3335 34.0166 31.2591 33.9274C31.1847 33.8381 31.14 33.7823 31.1251 33.76C31.0879 33.8269 31.0284 33.8567 30.9466 33.8492C30.8647 33.8418 30.8052 33.8083 30.768 33.7488C30.768 33.7562 30.7624 33.7767 30.7513 33.8102C30.7401 33.8437 30.7345 33.8678 30.7345 33.8827C30.6378 33.8827 30.582 33.879 30.5671 33.8716C30.5745 33.8492 30.5838 33.7841 30.595 33.6762C30.6062 33.5684 30.6192 33.4847 30.6341 33.4251C30.6415 33.3954 30.662 33.3507 30.6955 33.2912C30.7289 33.2317 30.7568 33.1777 30.7792 33.1294C30.8015 33.081 30.8164 33.0345 30.8238 32.9899C30.8312 32.9452 30.8145 32.9099 30.7736 32.8838C30.7327 32.8578 30.6676 32.8485 30.5783 32.8559C30.4369 32.8634 30.3402 32.9378 30.2881 33.0791C30.2806 33.1015 30.2695 33.1405 30.2546 33.1963C30.2397 33.2521 30.2211 33.2949 30.1988 33.3247C30.1765 33.3544 30.143 33.3805 30.0984 33.4028C30.0463 33.4251 29.957 33.4326 29.8305 33.4251C29.704 33.4177 29.6147 33.3991 29.5626 33.3693C29.4659 33.3098 29.3822 33.2019 29.3115 33.0457C29.2408 32.8894 29.2055 32.7518 29.2055 32.6327C29.2055 32.5583 29.2148 32.4597 29.2334 32.337C29.252 32.2142 29.2632 32.1212 29.2669 32.0579C29.2706 31.9947 29.2501 31.9036 29.2055 31.7845C29.2278 31.7696 29.2613 31.7343 29.3059 31.6785C29.3506 31.6227 29.3878 31.5836 29.4175 31.5613C29.4324 31.5539 29.4492 31.5483 29.4678 31.5446C29.4864 31.5408 29.5031 31.5408 29.518 31.5446C29.5329 31.5483 29.5478 31.5427 29.5626 31.5278C29.5775 31.5129 29.5887 31.4906 29.5961 31.4608C29.5887 31.4534 29.5738 31.4422 29.5515 31.4274C29.5292 31.405 29.5143 31.3939 29.5068 31.3939C29.5589 31.4162 29.6649 31.4106 29.8249 31.3771C29.9849 31.3437 30.0872 31.3492 30.1318 31.3939C30.2434 31.4757 30.3253 31.4683 30.3774 31.3716C30.3774 31.3641 30.3681 31.3288 30.3495 31.2655C30.3309 31.2023 30.329 31.1521 30.3439 31.1149C30.3811 31.3158 30.489 31.3492 30.6676 31.2153C30.6899 31.2376 30.7475 31.2562 30.8405 31.2711C30.9335 31.286 30.9987 31.3046 31.0359 31.3269C31.0582 31.3418 31.0842 31.3623 31.114 31.3883C31.1437 31.4143 31.1642 31.4311 31.1754 31.4385C31.1865 31.446 31.2051 31.4441 31.2312 31.4329C31.2572 31.4218 31.2888 31.3976 31.326 31.3604C31.4004 31.4646 31.4451 31.5539 31.46 31.6283C31.5418 31.9259 31.6125 32.0896 31.672 32.1193C31.7241 32.1416 31.765 32.1491 31.7948 32.1416C31.8245 32.1342 31.8413 32.0989 31.845 32.0356C31.8487 31.9724 31.8487 31.9203 31.845 31.8794C31.8413 31.8385 31.8357 31.7919 31.8283 31.7399L31.8171 31.6506C31.8171 31.5836 31.8171 31.5167 31.8171 31.4497L31.8059 31.3604C31.6943 31.3381 31.6255 31.2934 31.5995 31.2265C31.5734 31.1595 31.579 31.0907 31.6162 31.02C31.6534 30.9493 31.7092 30.8805 31.7836 30.8135C31.7911 30.8061 31.8208 30.7931 31.8729 30.7745C31.925 30.7559 31.9827 30.7317 32.0459 30.7019C32.1091 30.6722 32.1556 30.6424 32.1854 30.6126C32.3417 30.4713 32.3975 30.3411 32.3528 30.222C32.4049 30.222 32.4458 30.1885 32.4756 30.1216C32.4681 30.1216 32.4495 30.1104 32.4198 30.0881C32.39 30.0658 32.3621 30.0472 32.3361 30.0323C32.31 30.0174 32.2933 30.01 32.2859 30.01C32.3528 29.9728 32.3603 29.9132 32.3082 29.8314C32.3454 29.8091 32.3733 29.7681 32.3919 29.7086C32.4105 29.6491 32.4384 29.6119 32.4756 29.597C32.5425 29.6863 32.6207 29.6937 32.71 29.6193C32.7695 29.5598 32.7732 29.5003 32.7211 29.4408C32.7583 29.3887 32.8346 29.3496 32.9499 29.3236C33.0652 29.2975 33.1341 29.2622 33.1564 29.2175C33.2085 29.2324 33.2382 29.225 33.2457 29.1952C33.2531 29.1655 33.2568 29.1208 33.2568 29.0613C33.2568 29.0018 33.268 28.9571 33.2903 28.9274C33.3201 28.8902 33.3759 28.8567 33.4577 28.8269C33.5396 28.7972 33.5879 28.7786 33.6028 28.7711L33.7925 28.6483C33.8149 28.6186 33.8149 28.6037 33.7925 28.6037C33.9265 28.6186 34.0418 28.5777 34.1385 28.4809C34.2129 28.3991 34.1906 28.3247 34.0716 28.2577C34.0939 28.2131 34.0827 28.1777 34.0381 28.1517C33.9934 28.1257 33.9376 28.1052 33.8707 28.0903C33.893 28.0829 33.9358 28.081 33.999 28.0847C34.0623 28.0885 34.1013 28.0829 34.1162 28.068C34.2278 27.9936 34.2018 27.9341 34.0381 27.8894C33.9116 27.8522 33.7516 27.8969 33.5582 28.0233ZM31.739 37.8113C33.2717 37.5434 34.5775 36.8403 35.6564 35.7019C35.6341 35.6796 35.5876 35.6629 35.5169 35.6517C35.4462 35.6405 35.3997 35.6275 35.3774 35.6126C35.2434 35.5605 35.1542 35.5308 35.1095 35.5233C35.117 35.4713 35.1077 35.4229 35.0816 35.3783C35.0556 35.3336 35.0258 35.3001 34.9923 35.2778C34.9588 35.2555 34.9123 35.2257 34.8528 35.1885C34.7933 35.1513 34.7524 35.1253 34.73 35.1104C34.7152 35.0955 34.6891 35.0732 34.6519 35.0434C34.6147 35.0137 34.5887 34.9932 34.5738 34.9821C34.5589 34.9709 34.531 34.9541 34.4901 34.9318C34.4492 34.9095 34.4175 34.9021 34.3952 34.9095C34.3729 34.9169 34.3357 34.9207 34.2836 34.9207L34.2501 34.9318C34.2278 34.9393 34.2074 34.9486 34.1888 34.9597C34.1702 34.9709 34.1497 34.9821 34.1274 34.9932C34.105 35.0044 34.0902 35.0155 34.0827 35.0267C34.0753 35.0379 34.0753 35.0472 34.0827 35.0546C33.9265 34.9281 33.7925 34.8463 33.6809 34.8091C33.6437 34.8016 33.6028 34.7812 33.5582 34.7477C33.5135 34.7142 33.4745 34.6882 33.441 34.6696C33.4075 34.651 33.3703 34.6454 33.3294 34.6528C33.2885 34.6603 33.2457 34.6863 33.201 34.7309C33.1638 34.7681 33.1415 34.8239 33.1341 34.8983C33.1266 34.9728 33.1192 35.0211 33.1117 35.0434C33.0597 35.0062 33.0597 34.9411 33.1117 34.8481C33.1638 34.7551 33.1713 34.6863 33.1341 34.6416C33.1117 34.597 33.0727 34.5803 33.0169 34.5914C32.9611 34.6026 32.9164 34.6193 32.883 34.6416C32.8495 34.664 32.8067 34.6956 32.7546 34.7365C32.7025 34.7774 32.669 34.8016 32.6542 34.8091C32.6393 34.8165 32.6077 34.837 32.5593 34.8704C32.5109 34.9039 32.4793 34.9318 32.4644 34.9541C32.4421 34.9839 32.4198 35.0286 32.3975 35.0881C32.3751 35.1476 32.3565 35.1885 32.3417 35.2108C32.3268 35.1811 32.284 35.1569 32.2133 35.1383C32.1426 35.1197 32.1073 35.0992 32.1073 35.0769C32.1222 35.1513 32.137 35.2815 32.1519 35.4675C32.1668 35.6536 32.1854 35.7949 32.2077 35.8916C32.2598 36.1223 32.2152 36.3009 32.0738 36.4274C31.8729 36.6134 31.765 36.7622 31.7501 36.8738C31.7204 37.0375 31.765 37.1342 31.8841 37.164C31.8841 37.2161 31.8543 37.2923 31.7948 37.3928C31.7353 37.4932 31.7092 37.5732 31.7167 37.6327C31.7167 37.6774 31.7241 37.7369 31.739 37.8113Z" fill="white"/>
</g>
<defs>
<clipPath id="clip0_1_398">
<rect width="17.16" height="20" fill="white" transform="matrix(1 0 0 -1 21.9199 40.78)"/>
</clipPath>
</defs>
</svg>
