<svg width="61" height="62" viewBox="0 0 61 62" fill="none" xmlns="http://www.w3.org/2000/svg">
<g clip-path="url(#clip0_3_1126)">
<path d="M60.5 31.0601C60.5 14.4915 47.0685 1.06006 30.5 1.06006C13.9315 1.06006 0.5 14.4915 0.5 31.0601C0.5 47.6286 13.9315 61.0601 30.5 61.0601C47.0685 61.0601 60.5 47.6286 60.5 31.0601Z" fill="#182933"/>
<path d="M31.0007 21.8333C36.0634 21.8333 40.1673 25.9372 40.1673 31C40.1673 36.0627 36.0634 40.1666 31.0007 40.1666C29.3807 40.1693 27.7893 39.7406 26.3898 38.9246L21.8377 40.1666L23.077 35.6126C22.2603 34.2128 21.8313 32.6206 21.834 31C21.834 25.9372 25.9379 21.8333 31.0007 21.8333ZM27.8767 26.6916L27.6933 26.699C27.5746 26.7062 27.4586 26.7374 27.3523 26.7906C27.2529 26.847 27.1621 26.9174 27.0828 26.9996C26.9728 27.1032 26.9105 27.1931 26.8436 27.2801C26.5045 27.721 26.322 28.2622 26.3247 28.8183C26.3266 29.2675 26.4439 29.7047 26.6272 30.1136C27.0022 30.9404 27.6191 31.8158 28.4331 32.6271C28.6292 32.8223 28.8217 33.0185 29.0289 33.2009C30.0404 34.0914 31.2456 34.7336 32.5489 35.0764L33.0696 35.1561C33.2392 35.1653 33.4087 35.1525 33.5792 35.1442C33.8462 35.1304 34.1069 35.0582 34.3428 34.9325C34.4629 34.8706 34.58 34.8034 34.6939 34.7308C34.6939 34.7308 34.7333 34.7051 34.8085 34.6483C34.9322 34.5566 35.0083 34.4916 35.111 34.3843C35.1871 34.3055 35.2531 34.2129 35.3035 34.1075C35.375 33.9581 35.4465 33.673 35.4758 33.4356C35.4978 33.2541 35.4914 33.1551 35.4887 33.0936C35.485 32.9956 35.4034 32.8938 35.3145 32.8507L34.781 32.6115C34.781 32.6115 33.9835 32.2641 33.4958 32.0422C33.4448 32.0199 33.3901 32.0072 33.3345 32.0046C33.2718 31.9982 33.2084 32.0053 33.1486 32.0253C33.0889 32.0454 33.0341 32.0781 32.988 32.1211C32.9834 32.1192 32.922 32.1715 32.2592 32.9745C32.2212 33.0256 32.1688 33.0642 32.1087 33.0854C32.0487 33.1067 31.9836 33.1095 31.9219 33.0936C31.8622 33.0776 31.8037 33.0574 31.7468 33.0331C31.6332 32.9855 31.5937 32.9671 31.5158 32.9341C30.9897 32.7046 30.5026 32.3944 30.0721 32.0147C29.9566 31.9139 29.8493 31.8039 29.7393 31.6976C29.3787 31.3522 29.0644 30.9615 28.8043 30.5352L28.7502 30.4481C28.7114 30.3896 28.68 30.3265 28.6567 30.2602C28.6219 30.1255 28.7127 30.0173 28.7127 30.0173C28.7127 30.0173 28.9354 29.7735 29.039 29.6415C29.1398 29.5131 29.2251 29.3885 29.2801 29.2996C29.3882 29.1254 29.4222 28.9466 29.3653 28.8082C29.1087 28.1812 28.8428 27.557 28.5697 26.9373C28.5156 26.8145 28.3552 26.7265 28.2094 26.7091C28.1599 26.7036 28.1104 26.6981 28.0609 26.6944C27.9378 26.6883 27.8145 26.6895 27.6915 26.6981L27.8767 26.6916Z" fill="white"/>
</g>
<defs>
<clipPath id="clip0_3_1126">
<rect width="61" height="61" fill="white" transform="translate(0 0.280029)"/>
</clipPath>
</defs>
</svg>
